<svg width="759" height="200" viewBox="0 0 759 200" fill="none" xmlns="http://www.w3.org/2000/svg">
<rect width="200" height="200" fill="#A700DF"/>
<path d="M168.351 73.8473V120.999L116.643 69.1422V134.582L168.351 120.693V155.167L83.3473 178L31.6494 126.154V79.0024L83.3504 130.851V65.4175L31.6494 79.3052V44.8325L116.651 22L168.351 73.8473Z" fill="white"/>
<path d="M231.727 146.5V76.6818H250.182V89H251C252.455 84.9091 254.879 81.6818 258.273 79.3182C261.667 76.9545 265.727 75.7727 270.455 75.7727C275.242 75.7727 279.318 76.9697 282.682 79.3636C286.045 81.7273 288.288 84.9394 289.409 89H290.136C291.561 85 294.136 81.803 297.864 79.4091C301.621 76.9848 306.061 75.7727 311.182 75.7727C317.697 75.7727 322.985 77.8485 327.045 82C331.136 86.1212 333.182 91.9697 333.182 99.5455V146.5H313.864V103.364C313.864 99.4848 312.833 96.5758 310.773 94.6364C308.712 92.697 306.136 91.7273 303.045 91.7273C299.53 91.7273 296.788 92.8485 294.818 95.0909C292.848 97.303 291.864 100.227 291.864 103.864V146.5H273.091V102.955C273.091 99.5303 272.106 96.803 270.136 94.7727C268.197 92.7424 265.636 91.7273 262.455 91.7273C260.303 91.7273 258.364 92.2727 256.636 93.3636C254.939 94.4242 253.591 95.9242 252.591 97.8636C251.591 99.7727 251.091 102.015 251.091 104.591V146.5H231.727ZM380.295 147.864C373.114 147.864 366.932 146.409 361.75 143.5C356.598 140.561 352.629 136.409 349.841 131.045C347.053 125.652 345.659 119.273 345.659 111.909C345.659 104.727 347.053 98.4242 349.841 93C352.629 87.5758 356.553 83.3485 361.614 80.3182C366.705 77.2879 372.674 75.7727 379.523 75.7727C384.129 75.7727 388.417 76.5152 392.386 78C396.386 79.4545 399.871 81.6515 402.841 84.5909C405.841 87.5303 408.174 91.2273 409.841 95.6818C411.508 100.106 412.341 105.288 412.341 111.227V116.545H353.386V104.545H394.114C394.114 101.758 393.508 99.2879 392.295 97.1364C391.083 94.9848 389.402 93.303 387.25 92.0909C385.129 90.8485 382.659 90.2273 379.841 90.2273C376.902 90.2273 374.295 90.9091 372.023 92.2727C369.78 93.6061 368.023 95.4091 366.75 97.6818C365.477 99.9242 364.826 102.424 364.795 105.182V116.591C364.795 120.045 365.432 123.03 366.705 125.545C368.008 128.061 369.841 130 372.205 131.364C374.568 132.727 377.371 133.409 380.614 133.409C382.765 133.409 384.735 133.106 386.523 132.5C388.311 131.894 389.841 130.985 391.114 129.773C392.386 128.561 393.356 127.076 394.023 125.318L411.932 126.5C411.023 130.803 409.159 134.561 406.341 137.773C403.553 140.955 399.947 143.439 395.523 145.227C391.129 146.985 386.053 147.864 380.295 147.864ZM462.114 76.6818V91.2273H420.068V76.6818H462.114ZM429.614 59.9545H448.977V125.045C448.977 126.833 449.25 128.227 449.795 129.227C450.341 130.197 451.098 130.879 452.068 131.273C453.068 131.667 454.22 131.864 455.523 131.864C456.432 131.864 457.341 131.788 458.25 131.636C459.159 131.455 459.856 131.318 460.341 131.227L463.386 145.636C462.417 145.939 461.053 146.288 459.295 146.682C457.538 147.106 455.402 147.364 452.886 147.455C448.22 147.636 444.129 147.015 440.614 145.591C437.129 144.167 434.417 141.955 432.477 138.955C430.538 135.955 429.583 132.167 429.614 127.591V59.9545ZM474.727 146.5V76.6818H493.5V88.8636H494.227C495.5 84.5303 497.636 81.2576 500.636 79.0455C503.636 76.803 507.091 75.6818 511 75.6818C511.97 75.6818 513.015 75.7424 514.136 75.8636C515.258 75.9848 516.242 76.1515 517.091 76.3636V93.5455C516.182 93.2727 514.924 93.0303 513.318 92.8182C511.712 92.6061 510.242 92.5 508.909 92.5C506.061 92.5 503.515 93.1212 501.273 94.3636C499.061 95.5758 497.303 97.2727 496 99.4545C494.727 101.636 494.091 104.152 494.091 107V146.5H474.727ZM555.398 147.864C548.337 147.864 542.231 146.364 537.08 143.364C531.958 140.333 528.004 136.121 525.216 130.727C522.428 125.303 521.034 119.015 521.034 111.864C521.034 104.652 522.428 98.3485 525.216 92.9545C528.004 87.5303 531.958 83.3182 537.08 80.3182C542.231 77.2879 548.337 75.7727 555.398 75.7727C562.458 75.7727 568.549 77.2879 573.67 80.3182C578.822 83.3182 582.792 87.5303 585.58 92.9545C588.367 98.3485 589.761 104.652 589.761 111.864C589.761 119.015 588.367 125.303 585.58 130.727C582.792 136.121 578.822 140.333 573.67 143.364C568.549 146.364 562.458 147.864 555.398 147.864ZM555.489 132.864C558.701 132.864 561.383 131.955 563.534 130.136C565.686 128.288 567.307 125.773 568.398 122.591C569.519 119.409 570.08 115.788 570.08 111.727C570.08 107.667 569.519 104.045 568.398 100.864C567.307 97.6818 565.686 95.1667 563.534 93.3182C561.383 91.4697 558.701 90.5455 555.489 90.5455C552.246 90.5455 549.519 91.4697 547.307 93.3182C545.125 95.1667 543.473 97.6818 542.352 100.864C541.261 104.045 540.716 107.667 540.716 111.727C540.716 115.788 541.261 119.409 542.352 122.591C543.473 125.773 545.125 128.288 547.307 130.136C549.519 131.955 552.246 132.864 555.489 132.864ZM564.534 68.3182L555.398 57.2273L546.261 68.3182H529.761V67.6818L548.17 47.6818H562.58L581.034 67.6818V68.3182H564.534ZM636.17 147.773C629.746 147.773 624.019 146.591 618.989 144.227C613.989 141.864 610.019 138.606 607.08 134.455C604.14 130.303 602.61 125.545 602.489 120.182H621.58C621.792 123.788 623.307 126.712 626.125 128.955C628.943 131.197 632.292 132.318 636.17 132.318C639.261 132.318 641.989 131.636 644.352 130.273C646.746 128.879 648.61 126.955 649.943 124.5C651.307 122.015 651.989 119.167 651.989 115.955C651.989 112.682 651.292 109.803 649.898 107.318C648.534 104.833 646.64 102.894 644.216 101.5C641.792 100.106 639.019 99.3939 635.898 99.3636C633.17 99.3636 630.519 99.9242 627.943 101.045C625.398 102.167 623.413 103.697 621.989 105.636L604.489 102.5L608.898 53.4091H665.807V69.5H625.125L622.716 92.8182H623.261C624.898 90.5152 627.367 88.6061 630.67 87.0909C633.973 85.5758 637.67 84.8182 641.761 84.8182C647.367 84.8182 652.367 86.1364 656.761 88.7727C661.155 91.4091 664.625 95.0303 667.17 99.6364C669.716 104.212 670.973 109.485 670.943 115.455C670.973 121.727 669.519 127.303 666.58 132.182C663.67 137.03 659.595 140.848 654.352 143.636C649.14 146.394 643.08 147.773 636.17 147.773ZM684.852 172.682V76.6818H703.943V88.4091H704.807C705.655 86.5303 706.883 84.6212 708.489 82.6818C710.125 80.7121 712.246 79.0758 714.852 77.7727C717.489 76.4394 720.761 75.7727 724.67 75.7727C729.761 75.7727 734.458 77.1061 738.761 79.7727C743.064 82.4091 746.504 86.3939 749.08 91.7273C751.655 97.0303 752.943 103.682 752.943 111.682C752.943 119.47 751.686 126.045 749.17 131.409C746.686 136.742 743.292 140.788 738.989 143.545C734.716 146.273 729.928 147.636 724.625 147.636C720.867 147.636 717.67 147.015 715.034 145.773C712.428 144.53 710.292 142.97 708.625 141.091C706.958 139.182 705.686 137.258 704.807 135.318H704.216V172.682H684.852ZM703.807 111.591C703.807 115.742 704.383 119.364 705.534 122.455C706.686 125.545 708.352 127.955 710.534 129.682C712.716 131.379 715.367 132.227 718.489 132.227C721.64 132.227 724.307 131.364 726.489 129.636C728.67 127.879 730.322 125.455 731.443 122.364C732.595 119.242 733.17 115.652 733.17 111.591C733.17 107.561 732.61 104.015 731.489 100.955C730.367 97.8939 728.716 95.5 726.534 93.7727C724.352 92.0455 721.67 91.1818 718.489 91.1818C715.337 91.1818 712.67 92.0151 710.489 93.6818C708.337 95.3485 706.686 97.7121 705.534 100.773C704.383 103.833 703.807 107.439 703.807 111.591Z" fill="#BF00FF"/>
</svg>
